<svg width="60.000000" height="60.000000" viewBox="0 0 60 60" fill="none" xmlns="http://www.w3.org/2000/svg" xmlns:xlink="http://www.w3.org/1999/xlink">
	<desc>
			Created with Pixso.
	</desc>
	<defs>
		<clipPath id="clip41_193">
			<rect id="solar:chef-hat-heart-line-duotone" width="24.000000" height="24.000000" transform="translate(18.000000 18.000000)" fill="white" fill-opacity="0"/>
		</clipPath>
	</defs>
	<circle id="Ellipse 3" cx="30.000000" cy="30.000000" r="29.500000" stroke="#312C27" stroke-opacity="1.000000" stroke-width="1.000000"/>
	<rect id="solar:chef-hat-heart-line-duotone" width="24.000000" height="24.000000" transform="translate(18.000000 18.000000)" fill="#FFFFFF" fill-opacity="0"/>
	<g clip-path="url(#clip41_193)">
		<path id="Vector" d="M23 32.58L23.75 32.58C23.75 32.43 23.7 32.29 23.62 32.17C23.54 32.05 23.43 31.95 23.29 31.89L23 32.58ZM37 32.58L36.7 31.89C36.56 31.95 36.45 32.05 36.37 32.17C36.29 32.29 36.25 32.43 36.25 32.58L37 32.58ZM33.75 25C33.75 25.19 33.82 25.38 33.96 25.53C34.11 25.67 34.3 25.75 34.5 25.75C34.69 25.75 34.88 25.67 35.03 25.53C35.17 25.38 35.25 25.19 35.25 25L33.75 25ZM24.75 25C24.75 25.19 24.82 25.38 24.96 25.53C25.11 25.67 25.3 25.75 25.5 25.75C25.69 25.75 25.88 25.67 26.03 25.53C26.17 25.38 26.25 25.19 26.25 25L24.75 25ZM25 22.25C23.47 22.25 22.01 22.85 20.93 23.93C19.85 25.01 19.25 26.47 19.25 28L20.75 28C20.75 26.87 21.19 25.79 21.99 24.99C22.79 24.19 23.87 23.75 25 23.75L25 22.25ZM35 23.75C36.12 23.75 37.2 24.19 38 24.99C38.8 25.79 39.25 26.87 39.25 28L40.75 28C40.75 26.47 40.14 25.01 39.06 23.93C37.98 22.85 36.52 22.25 35 22.25L35 23.75ZM33 39.25L27 39.25L27 40.75L33 40.75L33 39.25ZM27 39.25C26.03 39.25 25.38 39.24 24.9 39.18C24.44 39.12 24.24 39.01 24.11 38.88L23.05 39.94C23.51 40.4 24.07 40.58 24.7 40.66C25.31 40.75 26.07 40.75 27 40.75L27 39.25ZM22.25 36C22.25 36.92 22.24 37.68 22.33 38.29C22.41 38.92 22.6 39.48 23.05 39.94L24.11 38.88C23.98 38.75 23.87 38.55 23.81 38.09C23.75 37.61 23.75 36.96 23.75 36L22.25 36ZM36.25 36C36.25 36.96 36.24 37.61 36.18 38.09C36.12 38.55 36.01 38.75 35.88 38.88L36.94 39.94C37.39 39.48 37.58 38.92 37.66 38.29C37.75 37.68 37.75 36.92 37.75 36L36.25 36ZM33 40.75C33.92 40.75 34.68 40.75 35.29 40.66C35.92 40.58 36.49 40.4 36.94 39.94L35.88 38.88C35.75 39.01 35.55 39.12 35.09 39.18C34.61 39.24 33.96 39.25 33 39.25L33 40.75ZM25 23.75C25.21 23.75 25.42 23.76 25.62 23.79L25.84 22.31C25.56 22.27 25.28 22.25 25 22.25L25 23.75ZM30 19.25C28.9 19.25 27.83 19.59 26.94 20.23C26.04 20.87 25.37 21.77 25.02 22.81L26.44 23.29C26.69 22.55 27.17 21.9 27.81 21.45C28.45 20.99 29.21 20.75 30 20.75L30 19.25ZM25.02 22.81C24.84 23.35 24.74 23.92 24.75 24.5L26.25 24.5C26.25 24.07 26.31 23.67 26.44 23.29L25.02 22.81ZM35 22.25C34.71 22.25 34.43 22.27 34.15 22.31L34.37 23.79C34.58 23.76 34.79 23.75 35 23.75L35 22.25ZM30 20.75C30.78 20.75 31.54 20.99 32.18 21.45C32.82 21.9 33.29 22.55 33.55 23.29L34.97 22.81C34.61 21.77 33.95 20.87 33.05 20.23C32.16 19.59 31.09 19.25 30 19.25L30 20.75ZM33.55 23.29C33.68 23.67 33.75 24.07 33.75 24.5L35.25 24.5C35.25 23.91 35.15 23.34 34.97 22.81L33.55 23.29L33.55 23.29ZM23.75 36L23.75 32.58L22.25 32.58L22.25 36L23.75 36ZM23.29 31.89C22.54 31.56 21.89 31.02 21.44 30.32C20.99 29.63 20.75 28.82 20.75 28L19.25 28C19.25 29.11 19.57 30.21 20.18 31.14C20.8 32.08 21.67 32.82 22.7 33.27L23.29 31.89ZM36.25 32.58L36.25 36L37.75 36L37.75 32.58L36.25 32.58ZM39.25 28C39.25 28.82 39 29.63 38.55 30.32C38.1 31.02 37.45 31.56 36.7 31.89L37.29 33.27C38.32 32.82 39.19 32.08 39.81 31.14C40.42 30.21 40.75 29.11 40.75 28L39.25 28ZM33.75 24.5L33.75 25L35.25 25L35.25 24.5L33.75 24.5ZM24.75 24.5L24.75 25L26.25 25L26.25 24.5L24.75 24.5Z" fill="#1F1711" fill-opacity="1.000000" fill-rule="nonzero"/>
		<g opacity="0.700000">
			<path id="Vector" d="M30 27.99L29.48 28.53C29.62 28.67 29.8 28.74 30 28.74C30.19 28.74 30.37 28.67 30.51 28.53L30 27.99ZM29.48 31.06C29.06 30.75 28.6 30.37 28.25 29.97C27.89 29.54 27.75 29.21 27.75 29L26.25 29C26.25 29.77 26.69 30.45 27.12 30.95C27.57 31.47 28.13 31.93 28.59 32.27L29.48 31.06ZM27.75 29C27.75 28.42 28.01 28.17 28.24 28.09C28.49 28 28.95 28.03 29.48 28.53L30.51 27.45C29.69 26.66 28.65 26.35 27.74 26.67C26.81 27 26.25 27.9 26.25 29L27.75 29ZM31.39 32.27C31.85 31.93 32.42 31.47 32.87 30.95C33.3 30.45 33.75 29.77 33.75 29L32.25 29C32.25 29.21 32.1 29.54 31.74 29.97C31.39 30.37 30.93 30.75 30.51 31.06L31.4 32.27L31.39 32.27ZM33.75 29C33.75 27.9 33.18 27 32.25 26.67C31.34 26.35 30.3 26.66 29.48 27.45L30.51 28.53C31.04 28.03 31.5 28 31.75 28.09C31.98 28.17 32.25 28.42 32.25 29L33.75 29ZM28.6 32.27C28.96 32.54 29.38 32.88 30 32.88L30 31.38C29.97 31.38 29.96 31.38 29.9 31.35C29.76 31.26 29.61 31.16 29.48 31.06L28.59 32.27L28.6 32.27ZM30.51 31.06C30.38 31.16 30.23 31.26 30.09 31.35C30.04 31.38 30.02 31.38 30 31.38L30 32.88C30.61 32.88 31.03 32.54 31.39 32.27L30.51 31.06Z" fill="#1F1711" fill-opacity="1.000000" fill-rule="nonzero"/>
		</g>
		<g opacity="0.700000">
			<path id="Vector" d="M23 36L37 36" stroke="#1F1711" stroke-opacity="1.000000" stroke-width="1.500000" stroke-linejoin="round" stroke-linecap="round"/>
		</g>
	</g>
</svg>
