<svg width="30.000000" height="30.000000" viewBox="0 0 30 30" fill="none" xmlns="http://www.w3.org/2000/svg" xmlns:xlink="http://www.w3.org/1999/xlink">
	<desc>
			Created with Pixso.
	</desc>
	<defs>
		<clipPath id="clip5_4081">
			<rect id="Stroke 2/shopping-bag" rx="0.000000" width="29.000000" height="29.000000" transform="translate(0.500000 0.500000)" fill="white" fill-opacity="0"/>
		</clipPath>
	</defs>
	<rect id="Stroke 2/shopping-bag" rx="0.000000" width="29.000000" height="29.000000" transform="translate(0.500000 0.500000)" fill="#FFFFFF" fill-opacity="0"/>
	<g clip-path="url(#clip5_4081)">
		<path id="Vector" d="M6.25 8.75L23.75 8.75C25.13 8.75 26.25 9.86 26.25 11.25L26.25 25C26.25 26.38 25.13 27.5 23.75 27.5L6.25 27.5C4.86 27.5 3.75 26.38 3.75 25L3.75 11.25C3.75 9.86 4.86 8.75 6.25 8.75Z" stroke="#FFFFFF" stroke-opacity="1.000000" stroke-width="2.000000" stroke-linejoin="round"/>
		<path id="Vector" d="M10 12.5L10 7.5C10 4.73 12.23 2.5 15 2.5C17.76 2.5 20 4.73 20 7.5L20 12.11" stroke="#FFFFFF" stroke-opacity="1.000000" stroke-width="2.000000" stroke-linejoin="round" stroke-linecap="round"/>
	</g>
</svg>
