<svg width="16.000000" height="16.000000" viewBox="0 0 16 16" fill="none" xmlns="http://www.w3.org/2000/svg" xmlns:xlink="http://www.w3.org/1999/xlink">
	<desc>
			Created with Pixso.
	</desc>
	<defs>
		<clipPath id="clip23_313">
			<rect id="jam:check" width="16.000000" height="16.000000" fill="white" fill-opacity="0"/>
		</clipPath>
	</defs>
	<rect id="Property 1=Active" width="16.000000" height="16.000000" fill="#FFFFFF" fill-opacity="0"/>
	<rect id="Rectangle 13" rx="4.000000" width="16.000000" height="16.000000" fill="#FFA55C" fill-opacity="1.000000"/>
	<rect id="jam:check" width="16.000000" height="16.000000" fill="#FFFFFF" fill-opacity="0"/>
	<g clip-path="url(#clip23_313)">
		<path id="Vector" d="M6.99 11.15C6.9 11.15 6.81 11.13 6.73 11.1C6.65 11.06 6.58 11.02 6.51 10.95L3.69 8.12C3.62 8.06 3.57 7.99 3.54 7.91C3.5 7.83 3.48 7.74 3.48 7.65C3.48 7.56 3.5 7.47 3.53 7.39C3.57 7.31 3.61 7.24 3.68 7.17C3.74 7.11 3.81 7.06 3.9 7.03C3.98 6.99 4.07 6.98 4.15 6.98C4.24 6.98 4.33 7 4.41 7.03C4.49 7.07 4.57 7.12 4.63 7.18L6.98 9.54L11.23 5.3C11.35 5.17 11.52 5.1 11.7 5.1C11.88 5.1 12.05 5.17 12.17 5.3C12.3 5.42 12.37 5.59 12.37 5.77C12.37 5.94 12.3 6.11 12.17 6.24L7.46 10.95C7.4 11.02 7.32 11.06 7.24 11.1C7.16 11.13 7.07 11.15 6.99 11.15Z" fill="#FFF9F4" fill-opacity="1.000000" fill-rule="nonzero"/>
	</g>
</svg>
